#Comment line ignore any data following # character 
#Hierarchical Translation and Rotation (.htr) file 
[Header]	
#Header keywords are followed by a single value 
FileType HTR		#Single word string
DataType HTRS		#Translation followed by rotation and scale data
FileVersion 1		#integer
NumSegments 64		#integer
NumFrames 3		#integer
DataFrameRate 30		#integer, data frame rate in this file
EulerRotationOrder ZYX
CalibrationUnits mm
RotationUnits Degrees
GlobalAxisofGravity Y
BoneLengthAxis Y
ScaleFactor 1.00
[SegmentNames&Hierarchy]
#CHILD	PARENT
Pinger_Root GLOBAL
Pelvis Pinger_Root
L_Hip Pelvis
R_Hip Pelvis
Rear_Leg01 Pelvis
Spine1 Pelvis
L_Leg01 L_Hip
L_Leg02 L_Leg01
L_Leg03 L_Leg02
L_Foot L_Leg03
L_Toe1_01 L_Foot
L_Toe2_01 L_Foot
L_Toe3_01 L_Foot
planeAlignerLeft L_Foot
L_Toe1_02 L_Toe1_01
L_Toe1_03 L_Toe1_02
L_Toe2_02 L_Toe2_01
L_Toe2_03 L_Toe2_02
L_Toe3_02 L_Toe3_01
L_Toe3_03 L_Toe3_02
planeLockWeightLeft planeAlignerLeft
R_Leg01 R_Hip
R_Leg02 R_Leg01
R_Leg03 R_Leg02
R_Foot R_Leg03
planeAlignerRight R_Foot
R_Toe1_01 R_Foot
R_Toe2_01 R_Foot
R_Toe3_01 R_Foot
planeLockWeightRight planeAlignerRight
R_Toe1_02 R_Toe1_01
R_Toe1_03 R_Toe1_02
R_Toe2_02 R_Toe2_01
R_Toe2_03 R_Toe2_02
R_Toe3_02 R_Toe3_01
R_Toe3_03 R_Toe3_02
Rear_Leg02 Rear_Leg01
Rear_Leg03 Rear_Leg02
Rear_Leg04 Rear_Leg03
Rear_Foot Rear_Leg04
planeAlignerCenter Rear_Foot
Rear_Toe1_01 Rear_Foot
Rear_Toe2_01 Rear_Foot
Rear_Toe3_01 Rear_Foot
planeLockWeightCenter planeAlignerCenter
Rear_Toe1_02 Rear_Toe1_01
Rear_Toe1_03 Rear_Toe1_02
Rear_Toe2_02 Rear_Toe2_01
Rear_Toe2_03 Rear_Toe2_02
Rear_Toe3_02 Rear_Toe3_01
Rear_Toe3_03 Rear_Toe3_02
Back_Bone Spine1
Head Spine1
Motor_Bone Back_Bone
Ping_Mechanism Back_Bone
BN_LookIK Head
bottomMouth Head
L_Mouth01 Head
L_mouthFront Head
mouthGun Head
R_Mouth01 Head
R_mouthFront Head
TopMouth Head
weapon_bone Head
[BasePosition]
#SegmentName Tx, Ty, Tz, Rx, Ry, Rz, BoneLength
Pinger_Root 0.000000 0.000000 0.000000 -90.000000 0.000000 0.000000 10.000000 
Pelvis 0.000000 0.000000 0.000000 0.000000 0.000000 0.000000 10.000000 
L_Hip 0.000000 0.000000 0.000000 0.000000 0.000000 0.000000 10.000000 
R_Hip 0.000000 0.000000 0.000000 0.000000 0.000000 0.000000 10.000000 
Rear_Leg01 0.000000 0.000000 0.000000 0.000000 0.000000 0.000000 10.000000 
Spine1 0.000000 0.000000 0.000000 0.000000 0.000000 0.000000 10.000000 
L_Leg01 0.000000 0.000000 0.000000 0.000000 0.000000 0.000000 10.000000 
L_Leg02 0.000000 0.000000 0.000000 0.000000 0.000000 0.000000 10.000000 
L_Leg03 0.000000 0.000000 0.000000 0.000000 0.000000 0.000000 10.000000 
L_Foot 0.000000 0.000000 0.000000 0.000000 0.000000 0.000000 10.000000 
L_Toe1_01 0.000000 0.000000 0.000000 0.000000 0.000000 0.000000 10.000000 
L_Toe2_01 0.000000 0.000000 0.000000 0.000000 0.000000 0.000000 10.000000 
L_Toe3_01 0.000000 0.000000 0.000000 0.000000 0.000000 0.000000 10.000000 
planeAlignerLeft 0.000000 0.000000 0.000000 0.000000 0.000000 0.000000 10.000000 
L_Toe1_02 0.000000 0.000000 0.000000 0.000000 0.000000 0.000000 10.000000 
L_Toe1_03 0.000000 0.000000 0.000000 0.000000 0.000000 0.000000 10.000000 
L_Toe2_02 0.000000 0.000000 0.000000 0.000000 0.000000 0.000000 10.000000 
L_Toe2_03 0.000000 0.000000 0.000000 0.000000 0.000000 0.000000 10.000000 
L_Toe3_02 0.000000 0.000000 0.000000 0.000000 0.000000 0.000000 10.000000 
L_Toe3_03 0.000000 0.000000 0.000000 0.000000 0.000000 0.000000 10.000000 
planeLockWeightLeft 0.000000 0.000000 0.000000 0.000000 0.000000 0.000000 10.000000 
R_Leg01 0.000000 0.000000 0.000000 0.000000 0.000000 0.000000 10.000000 
R_Leg02 0.000000 0.000000 0.000000 0.000000 0.000000 0.000000 10.000000 
R_Leg03 0.000000 0.000000 0.000000 0.000000 0.000000 0.000000 10.000000 
R_Foot 0.000000 0.000000 0.000000 0.000000 0.000000 0.000000 10.000000 
planeAlignerRight 0.000000 0.000000 0.000000 0.000000 0.000000 0.000000 10.000000 
R_Toe1_01 0.000000 0.000000 0.000000 0.000000 0.000000 0.000000 10.000000 
R_Toe2_01 0.000000 0.000000 0.000000 0.000000 0.000000 0.000000 10.000000 
R_Toe3_01 0.000000 0.000000 0.000000 0.000000 0.000000 0.000000 10.000000 
planeLockWeightRight 0.000000 0.000000 0.000000 0.000000 0.000000 0.000000 10.000000 
R_Toe1_02 0.000000 0.000000 0.000000 0.000000 0.000000 0.000000 10.000000 
R_Toe1_03 0.000000 0.000000 0.000000 0.000000 0.000000 0.000000 10.000000 
R_Toe2_02 0.000000 0.000000 0.000000 0.000000 0.000000 0.000000 10.000000 
R_Toe2_03 0.000000 0.000000 0.000000 0.000000 0.000000 0.000000 10.000000 
R_Toe3_02 0.000000 0.000000 0.000000 0.000000 0.000000 0.000000 10.000000 
R_Toe3_03 0.000000 0.000000 0.000000 0.000000 0.000000 0.000000 10.000000 
Rear_Leg02 0.000000 0.000000 0.000000 0.000000 0.000000 0.000000 10.000000 
Rear_Leg03 0.000000 0.000000 0.000000 0.000000 0.000000 0.000000 10.000000 
Rear_Leg04 0.000000 0.000000 0.000000 0.000000 0.000000 0.000000 10.000000 
Rear_Foot 0.000000 0.000000 0.000000 0.000000 0.000000 0.000000 10.000000 
planeAlignerCenter 0.000000 0.000000 0.000000 0.000000 0.000000 0.000000 10.000000 
Rear_Toe1_01 0.000000 0.000000 0.000000 0.000000 0.000000 0.000000 10.000000 
Rear_Toe2_01 0.000000 0.000000 0.000000 0.000000 0.000000 0.000000 10.000000 
Rear_Toe3_01 0.000000 0.000000 0.000000 0.000000 0.000000 0.000000 10.000000 
planeLockWeightCenter 0.000000 0.000000 0.000000 0.000000 0.000000 0.000000 10.000000 
Rear_Toe1_02 0.000000 0.000000 0.000000 0.000000 0.000000 0.000000 10.000000 
Rear_Toe1_03 0.000000 0.000000 0.000000 0.000000 0.000000 0.000000 10.000000 
Rear_Toe2_02 0.000000 0.000000 0.000000 0.000000 0.000000 0.000000 10.000000 
Rear_Toe2_03 0.000000 0.000000 0.000000 0.000000 0.000000 0.000000 10.000000 
Rear_Toe3_02 0.000000 0.000000 0.000000 0.000000 0.000000 0.000000 10.000000 
Rear_Toe3_03 0.000000 0.000000 0.000000 0.000000 0.000000 0.000000 10.000000 
Back_Bone 0.000000 0.000000 0.000000 0.000000 0.000000 0.000000 10.000000 
Head 0.000000 0.000000 0.000000 0.000000 0.000000 0.000000 10.000000 
Motor_Bone 0.000000 0.000000 0.000000 0.000000 0.000000 0.000000 10.000000 
Ping_Mechanism 0.000000 0.000000 0.000000 0.000000 0.000000 0.000000 10.000000 
BN_LookIK 0.000000 0.000000 0.000000 0.000000 0.000000 0.000000 10.000000 
bottomMouth 0.000000 0.000000 0.000000 0.000000 0.000000 0.000000 10.000000 
L_Mouth01 0.000000 0.000000 0.000000 0.000000 0.000000 0.000000 10.000000 
L_mouthFront 0.000000 0.000000 0.000000 0.000000 0.000000 0.000000 10.000000 
mouthGun 0.000000 0.000000 0.000000 0.000000 0.000000 0.000000 10.000000 
R_Mouth01 0.000000 0.000000 0.000000 0.000000 0.000000 0.000000 10.000000 
R_mouthFront 0.000000 0.000000 0.000000 0.000000 0.000000 0.000000 10.000000 
TopMouth 0.000000 0.000000 0.000000 0.000000 0.000000 0.000000 10.000000 
weapon_bone 0.000000 0.000000 0.000000 0.000000 0.000000 0.000000 10.000000 
#Beginning of Data. Separated by tabs
#Fr	Tx	Ty	Tz	Rx	Ry	Rz	SF
[Pinger_Root]
189 0.000000 0.000000 0.000000 -0.000075 -0.000000 -0.000020 0.000000
190 0.000000 0.000000 0.000000 -0.000075 -0.000000 -0.000020 0.000000
191 0.000000 0.000000 0.000000 -0.000075 -0.000000 -0.000020 0.000000
[Pelvis]
189 -93.502892 956.707214 3757.056152 91.293816 -76.182983 -98.868462 3878.079834
190 -84.642899 940.699951 3743.751465 87.968124 -74.201492 -95.719055 3861.056396
191 -75.782845 924.692322 3730.446533 86.923416 -73.444824 -94.752480 3844.090332
[L_Hip]
189 5.766392 125.831482 872.656799 156.942825 -45.841015 127.904839 881.701050
190 5.766392 125.831482 872.656799 159.293686 -45.595070 123.832123 881.701050
191 5.766392 125.831482 872.656799 160.158585 -45.484913 122.312378 881.701050
[R_Hip]
189 5.765438 125.836372 -872.654907 37.914936 49.926743 125.478416 881.699829
190 5.765438 125.836372 -872.654907 38.047134 49.839397 125.651688 881.699829
191 5.765438 125.836372 -872.654907 38.047825 49.838940 125.652557 881.699829
[Rear_Leg01]
189 -192.298416 -925.602966 -0.001907 171.223618 6.118576 -132.108490 945.367432
190 -192.298416 -925.602966 -0.001907 171.695602 6.888541 -129.606750 945.367432
191 -192.298416 -925.602966 -0.001907 171.839600 7.092073 -128.646744 945.367432
[Spine1]
189 290.604584 5.007505 0.000477 7.125346 -1.671843 36.960209 290.647736
190 290.604584 5.007505 0.000477 6.835416 -2.100415 38.995640 290.647736
191 290.604584 5.007505 0.000477 6.734969 -2.137006 39.778095 290.647736
[L_Leg01]
189 761.932007 -0.002384 -0.069261 53.781803 4.352704 -32.017654 761.932068
190 761.932007 -0.002384 -0.069261 51.233017 8.833132 -37.325142 761.932068
191 761.932007 -0.002384 -0.069261 49.226471 10.194825 -38.839172 761.932068
[L_Leg02]
189 1441.140503 -0.000954 -0.000715 16.744259 5.644241 -121.235191 1441.140503
190 1441.140503 -0.000954 -0.000715 17.666868 5.112139 -116.501633 1441.140503
191 1441.140503 -0.000954 -0.000715 17.893621 4.859949 -115.686264 1441.140503
[L_Leg03]
189 1686.963989 -0.000715 -0.000954 -0.111796 0.068847 141.021027 1686.963989
190 1686.963989 -0.000715 -0.000954 -0.106593 0.064016 139.052795 1686.963989
191 1686.963989 -0.000715 -0.000954 -0.100637 0.060441 138.286209 1686.963989
[L_Foot]
189 3041.570068 -30.715107 11.297464 4.344200 30.915459 48.613384 3041.746094
190 3041.570068 -30.715107 11.297464 5.511099 28.511778 47.836624 3041.746094
191 3041.570068 -30.715107 11.297464 6.003853 26.457487 47.593666 3041.746094
[L_Toe1_01]
189 -188.216690 -224.732346 -21.137953 95.646652 -5.542130 169.291748 293.899567
190 -188.216690 -224.732346 -21.137953 95.646614 -5.542301 169.292709 293.899567
191 -188.216690 -224.732346 -21.137953 95.646576 -5.542472 169.293655 293.899567
[L_Toe2_01]
189 200.746536 -219.926590 148.838394 -96.539680 -26.054741 -37.668041 332.896027
190 200.746536 -219.926590 148.838394 -96.539360 -26.054779 -37.668812 332.896027
191 200.746536 -219.926590 148.838394 -96.539040 -26.054817 -37.669571 332.896027
[L_Toe3_01]
189 188.832520 -219.859131 -191.078659 -96.730217 17.862600 -55.987854 347.140900
190 188.832520 -219.859131 -191.078659 -96.730331 17.862312 -55.988552 347.140900
191 188.832520 -219.859131 -191.078659 -96.730461 17.862030 -55.989262 347.140900
[planeAlignerLeft]
189 0.812531 -811.448792 -0.314951 0.000000 -90.000000 -90.001900 811.449280
190 0.812531 -811.448792 -0.314951 0.000000 -90.000000 -90.001900 811.449280
191 0.812531 -811.448792 -0.314951 0.000000 -90.000000 -90.001900 811.449280
[L_Toe1_02]
189 413.761139 0.000477 0.000000 0.001442 -18.982502 0.001442 413.761139
190 413.761139 0.000477 0.000000 0.001442 -18.983416 0.001442 413.761139
191 413.761139 0.000477 0.000000 0.001442 -18.984325 0.001442 413.761139
[L_Toe1_03]
189 464.317322 0.000358 -0.000089 -179.985870 85.853294 -179.982376 464.317322
190 464.317322 0.000358 -0.000089 -179.985870 85.854233 -179.982361 464.317322
191 464.317322 0.000358 -0.000089 -179.985855 85.855141 -179.982361 464.317322
[L_Toe2_02]
189 342.235809 -0.000477 0.000238 0.004685 -80.814034 0.004685 342.235809
190 342.235809 -0.000477 0.000238 0.004685 -80.813034 0.004685 342.235809
191 342.235809 -0.000477 0.000238 0.004685 -80.811920 0.004685 342.235809
[L_Toe2_03]
189 420.210846 -0.000715 0.000000 179.992340 55.930065 179.999649 420.210846
190 420.210846 -0.000715 0.000000 179.992340 55.930992 179.999649 420.210846
191 420.210846 -0.000715 0.000000 179.992340 55.931923 179.999649 420.210846
[L_Toe3_02]
189 329.270111 0.000954 0.000000 0.004675 -84.667953 0.004675 329.270111
190 329.270111 0.000954 0.000000 0.004675 -84.667923 0.004675 329.270111
191 329.270111 0.000954 0.000000 0.004675 -84.667847 0.004675 329.270111
[L_Toe3_03]
189 439.137451 -0.001907 0.000954 179.993118 45.418617 -179.999313 439.137451
190 439.137451 -0.001907 0.000954 179.993118 45.419708 -179.999313 439.137451
191 439.137451 -0.001907 0.000954 179.993118 45.420799 -179.999329 439.137451
[planeLockWeightLeft]
189 -0.000954 0.000238 -0.000305 -0.011826 -0.004376 0.005620 0.001029
190 -0.000954 0.000238 -0.000305 -0.011826 -0.004376 0.005620 0.001029
191 -0.000954 0.000238 -0.000305 -0.011826 -0.004376 0.005620 0.001029
[R_Leg01]
189 761.455627 -0.001907 -0.000358 112.486366 17.204126 43.396568 761.455688
190 761.455627 -0.001907 -0.000358 111.575005 20.483215 43.891865 761.455688
191 761.455627 -0.001907 -0.000358 111.220467 21.242195 43.917019 761.455688
[R_Leg02]
189 1441.140625 0.000000 -0.000238 -2.379764 -1.068389 -119.728638 1441.140625
190 1441.140625 0.000000 -0.000238 -2.433024 -1.136172 -117.574562 1441.140625
191 1441.140625 0.000000 -0.000238 -2.476754 -1.191609 -117.635338 1441.140625
[R_Leg03]
189 1686.963989 0.000954 0.001431 0.126113 -0.080992 144.709335 1686.963989
190 1686.963989 0.000954 0.001431 0.128767 -0.083306 145.336273 1686.963989
191 1686.963989 0.000954 0.001431 0.131395 -0.085648 145.963150 1686.963989
[R_Foot]
189 3041.560059 -30.531288 -11.204481 4.320866 -24.520269 50.585991 3041.734131
190 3041.560059 -30.531288 -11.204481 4.235232 -24.566040 49.316101 3041.734131
191 3041.560059 -30.531288 -11.204481 4.115797 -24.563822 48.971031 3041.734131
[planeAlignerRight]
189 -0.635147 -812.270569 -0.364304 0.000000 -89.960434 -90.005180 812.270874
190 -0.635147 -812.270569 -0.364304 0.000000 -89.960434 -90.005180 812.270874
191 -0.635147 -812.270569 -0.364304 0.000000 -89.960434 -90.005180 812.270874
[R_Toe1_01]
189 -188.383347 -224.864899 21.052242 77.184067 -3.244098 172.329178 294.101532
190 -188.383347 -224.864899 21.052242 77.184021 -3.243981 172.329605 294.101532
191 -188.383347 -224.864899 21.052242 77.183983 -3.243866 172.330032 294.101532
[R_Toe2_01]
189 200.637817 -220.002121 -148.787384 -84.926735 32.505562 -46.630085 332.857574
190 200.637817 -220.002121 -148.787384 -84.927048 32.505550 -46.630665 332.857574
191 200.637817 -220.002121 -148.787384 -84.927353 32.505535 -46.631241 332.857574
[R_Toe3_01]
189 188.606735 -220.092957 191.126343 -74.390076 -14.474882 -66.185181 347.192566
190 188.606735 -220.092957 191.126343 -74.390068 -14.474653 -66.185646 347.192566
191 188.606735 -220.092957 191.126343 -74.390068 -14.474429 -66.186119 347.192566
[planeLockWeightRight]
189 -0.000477 0.000000 0.000000 -0.011823 -0.004379 -0.000027 0.000477
190 -0.000477 0.000000 0.000000 -0.011823 -0.004379 -0.000027 0.000477
191 -0.000477 0.000000 0.000000 -0.011823 -0.004379 -0.000027 0.000477
[R_Toe1_02]
189 413.762085 0.000477 -0.000119 0.001469 -16.022444 0.001469 413.762085
190 413.762085 0.000477 -0.000119 0.001469 -16.023085 0.001469 413.762085
191 413.762085 0.000477 -0.000119 0.001469 -16.023722 0.001469 413.762085
[R_Toe1_03]
189 464.317810 0.000000 0.001088 -179.996872 76.527397 -179.993347 464.317810
190 464.317810 0.000000 0.001088 -179.996872 76.527840 -179.993347 464.317810
191 464.317810 0.000000 0.001088 -179.996872 76.528259 -179.993347 464.317810
[R_Toe2_02]
189 342.234741 -0.000954 0.000238 -0.002333 -79.673340 -0.002333 342.234741
190 342.234741 -0.000954 0.000238 -0.002333 -79.672806 -0.002333 342.234741
191 342.234741 -0.000954 0.000238 -0.002333 -79.672272 -0.002333 342.234741
[R_Toe2_03]
189 420.210846 0.000715 -0.000268 -179.995560 65.044525 -179.999130 420.210846
190 420.210846 0.000715 -0.000268 -179.995560 65.044960 -179.999130 420.210846
191 420.210846 0.000715 -0.000268 -179.995560 65.045380 -179.999130 420.210846
[R_Toe3_02]
189 329.270355 -0.000477 -0.000954 0.001175 -83.646431 0.001175 329.270355
190 329.270355 -0.000477 -0.000954 0.001175 -83.645966 0.001175 329.270355
191 329.270355 -0.000477 -0.000954 0.001175 -83.645500 0.001175 329.270355
[R_Toe3_03]
189 439.137939 0.000238 0.001431 -179.994324 61.023098 -179.987106 439.137939
190 439.137939 0.000238 0.001431 -179.994324 61.023628 -179.987106 439.137939
191 439.137939 0.000238 0.001431 -179.994324 61.024147 -179.987091 439.137939
[Rear_Leg02]
189 1162.777710 -0.029802 0.005960 1.916890 -2.250055 -152.882065 1162.777710
190 1162.777710 -0.029802 0.005960 1.965207 -2.207202 -154.195877 1162.777710
191 1162.777710 -0.029802 0.005960 2.012543 -2.163239 -155.510086 1162.777710
[Rear_Leg03]
189 607.192505 -0.013351 -0.073195 0.010242 -0.005591 73.613319 607.192505
190 607.192505 -0.013351 -0.073195 0.010220 -0.005630 74.051216 607.192505
191 607.192505 -0.013351 -0.073195 0.010206 -0.005657 74.352470 607.192505
[Rear_Leg04]
189 995.874512 -0.020504 -0.011921 -0.045153 -0.018153 79.612709 995.874573
190 995.874512 -0.020504 -0.011921 -0.045305 -0.017794 80.531548 995.874573
191 995.874512 -0.020504 -0.011921 -0.045450 -0.017431 81.450607 995.874573
[Rear_Foot]
189 3096.176270 -0.067472 -0.041425 -128.234344 87.304405 73.690636 3096.176270
190 3096.176270 -0.067472 -0.041425 -129.767883 87.272362 72.670609 3096.176270
191 3096.176270 -0.067472 -0.041425 -132.334457 87.170975 70.244110 3096.176270
[planeAlignerCenter]
189 0.350077 0.966311 -838.790894 0.000009 0.000003 -179.999985 838.791565
190 0.350077 0.966311 -838.790894 0.000009 0.000003 -179.999985 838.791565
191 0.350077 0.966311 -838.790894 0.000009 0.000003 -179.999985 838.791565
[Rear_Toe1_01]
189 0.653352 83.966492 -371.173737 0.323019 36.744144 90.432587 380.553192
190 0.653352 83.966492 -371.173737 0.333231 35.930634 90.441841 380.553192
191 0.653352 83.966492 -371.173737 0.342181 35.427250 90.442917 380.553192
[Rear_Toe2_01]
189 178.200760 -294.826019 -362.060547 -6.333894 35.405270 -64.618301 499.765686
190 178.200760 -294.826019 -362.060547 -6.057353 35.406326 -64.181892 499.765686
191 178.200760 -294.826019 -362.060547 -5.780811 35.405636 -63.745472 499.765686
[Rear_Toe3_01]
189 -153.359680 -308.780914 -362.060852 2.929476 34.936733 -113.202232 499.952881
190 -153.359680 -308.780914 -362.060852 2.833602 34.930176 -113.342377 499.952881
191 -153.359680 -308.780914 -362.060852 2.737762 34.923374 -113.482452 499.952881
[planeLockWeightCenter]
189 -0.000062 0.000238 0.000000 -0.011814 -0.004373 -0.000015 0.000246
190 -0.000062 0.000238 0.000000 -0.011814 -0.004373 -0.000015 0.000246
191 -0.000062 0.000238 0.000000 -0.011814 -0.004373 -0.000015 0.000246
[Rear_Toe1_02]
189 379.707825 0.194073 0.000477 0.000009 -33.371902 0.000009 379.707855
190 379.707825 0.194073 0.000477 -0.001316 -33.124146 -0.001316 379.707855
191 379.707825 0.194073 0.000477 -0.002645 -32.876396 -0.002645 379.707855
[Rear_Toe1_03]
189 500.129700 0.165701 0.000119 0.014207 80.522797 0.014207 500.129761
190 500.129700 0.165701 0.000119 -0.012916 85.509613 -0.016415 500.129761
191 500.129700 0.165701 0.000119 -0.055129 88.841743 -0.058626 500.129761
[Rear_Toe2_02]
189 340.494507 0.000238 -0.000954 0.001176 -82.668236 0.001176 340.494507
190 340.494507 0.000238 -0.000954 0.001175 -84.706467 0.001175 340.494507
191 340.494507 0.000238 -0.000954 0.001174 -86.004921 0.001174 340.494507
[Rear_Toe2_03]
189 433.103577 0.000000 0.000238 179.959305 86.695122 179.959305 433.103546
190 433.103577 0.000000 0.000238 179.983414 81.885620 179.983414 433.103546
191 433.103577 0.000000 0.000238 -179.992462 78.586952 -179.995972 433.103546
[Rear_Toe3_02]
189 340.494141 -0.000358 -0.000477 0.001177 -81.337914 0.001177 340.494171
190 340.494141 -0.000358 -0.000477 0.001175 -83.567245 0.001175 340.494171
191 340.494141 -0.000358 -0.000477 0.001175 -84.967720 0.001175 340.494171
[Rear_Toe3_03]
189 433.103577 0.001431 -0.000238 0.000000 89.661385 0.003500 433.103546
190 433.103577 0.001431 -0.000238 -179.989365 84.678406 -179.985870 433.103546
191 433.103577 0.001431 -0.000238 -179.994232 81.238770 -179.990723 433.103546
[Back_Bone]
189 1312.175781 -701.934692 0.000954 1.465425 0.101409 -92.751534 1488.125488
190 1312.175781 -701.934692 0.000954 1.465519 0.158110 -92.698883 1488.125488
191 1312.175781 -701.934692 0.000954 1.443534 0.159021 -92.534462 1488.125488
[Head]
189 1406.159424 809.709290 0.001431 1.479111 -10.236976 22.020233 1622.625488
190 1406.159424 809.709290 0.001431 1.181312 -10.234854 23.161537 1622.625488
191 1406.159424 809.709290 0.001431 0.883679 -10.226896 24.302570 1622.625488
[Motor_Bone]
189 1158.364380 -417.834747 0.000477 -0.000105 0.000046 -105.985291 1231.419434
190 1158.364380 -417.834747 0.000477 -0.000105 0.000046 -105.985291 1231.419434
191 1158.364380 -417.834747 0.000477 -0.000105 0.000046 -105.985291 1231.419434
[Ping_Mechanism]
189 1153.327881 -402.626984 -10.374436 0.000103 -0.000053 82.120995 1221.630615
190 1144.660156 -396.626404 -7.361866 0.000103 -0.000053 82.120995 1211.451050
191 1141.527954 -394.156494 -6.150837 0.000103 -0.000053 82.120995 1207.676880
[BN_LookIK]
189 193.241119 1380.371704 -0.002861 0.000000 89.965736 -31.038179 1393.832153
190 193.241119 1380.371704 -0.002861 0.000000 89.965736 -31.038179 1393.832153
191 193.241119 1380.371704 -0.002861 0.000000 89.965736 -31.038179 1393.832153
[bottomMouth]
189 -435.092926 615.759399 -0.000954 -0.000022 0.000016 73.527184 753.966492
190 -435.092926 615.759399 -0.000954 -0.000022 0.000016 73.527184 753.966492
191 -435.092926 615.759399 -0.000954 -0.000022 0.000016 73.527184 753.966492
[L_Mouth01]
189 554.440979 7.658243 838.222046 150.204178 23.759130 109.605339 1005.027161
190 554.440979 7.658243 838.222046 150.204178 23.759130 109.605339 1005.027161
191 554.440979 7.658243 838.222046 150.204178 23.759130 109.605339 1005.027161
[L_mouthFront]
189 551.629089 934.514771 339.150421 0.000081 2.804060 79.119301 1136.941284
190 551.629089 934.514771 339.150421 0.000081 2.804060 79.119301 1136.941284
191 551.629089 934.514771 339.150421 0.000081 2.804060 79.119301 1136.941284
[mouthGun]
189 55.332661 1627.420898 0.000000 0.000023 0.000009 -11.038128 1628.361328
190 55.332661 1627.420898 0.000000 0.000023 0.000009 -11.038128 1628.361328
191 55.332661 1627.420898 0.000000 0.000023 0.000009 -11.038128 1628.361328
[R_Mouth01]
189 554.442383 7.659197 -838.223938 29.795891 -23.759109 109.605331 1005.029541
190 554.442383 7.659197 -838.223938 29.795891 -23.759109 109.605331 1005.029541
191 554.442383 7.659197 -838.223938 29.795891 -23.759109 109.605331 1005.029541
[R_mouthFront]
189 551.629089 934.514282 -339.151367 0.000029 -2.803930 79.119133 1136.941162
190 551.629089 934.514282 -339.151367 0.000029 -2.803930 79.119133 1136.941162
191 551.629089 934.514282 -339.151367 0.000029 -2.803930 79.119133 1136.941162
[TopMouth]
189 461.269867 -56.106091 -0.008583 -0.000059 -0.000268 92.025169 464.669525
190 461.269867 -56.106091 -0.008583 -0.000059 -0.000268 92.025169 464.669525
191 461.269867 -56.106091 -0.008583 -0.000059 -0.000268 92.025169 464.669525
[weapon_bone]
189 -987.239868 1448.372803 0.001431 0.000000 89.965736 -31.038221 1752.833740
190 -987.239868 1448.372803 0.001431 0.000000 89.965736 -31.038221 1752.833740
191 -987.239868 1448.372803 0.001431 0.000000 89.965736 -31.038221 1752.833740
